<?xml version="1.0" standalone="no"?>
<!DOCTYPE svg PUBLIC "-//W3C//DTD SVG 20010904//EN"
 "http://www.w3.org/TR/2001/REC-SVG-20010904/DTD/svg10.dtd">
<svg version="1.0" xmlns="http://www.w3.org/2000/svg"
 width="32.000000pt" height="32.000000pt" viewBox="0 0 32.000000 32.000000"
 preserveAspectRatio="xMidYMid meet">

<g transform="translate(0.000000,32.000000) scale(0.100000,-0.100000)"
fill="#000000" stroke="none">
<path d="M150 198 l0 -81 -25 23 c-41 38 -42 13 -2 -28 l37 -37 37 37 c40 41
39 66 -2 28 l-25 -23 0 81 c0 48 -4 82 -10 82 -6 0 -10 -34 -10 -82z"/>
<path d="M70 50 c0 -6 37 -10 90 -10 53 0 90 4 90 10 0 6 -37 10 -90 10 -53 0
-90 -4 -90 -10z"/>
</g>
</svg>
